<?xml version="1.0" standalone="no"?>
<!DOCTYPE svg PUBLIC "-//W3C//DTD SVG 20010904//EN"
 "http://www.w3.org/TR/2001/REC-SVG-20010904/DTD/svg10.dtd">
<svg version="1.0" xmlns="http://www.w3.org/2000/svg"
 width="1280.000000pt" height="1280.000000pt" viewBox="0 0 1280.000000 1280.000000"
 preserveAspectRatio="xMidYMid meet">
<metadata>
Created by potrace 1.11, written by Peter Selinger 2001-2013
</metadata>
<g transform="translate(0.000000,1280.000000) scale(0.100000,-0.100000)"
fill="#000000" stroke="none">
<path d="M0 6400 l0 -5030 6400 0 6400 0 0 5030 0 5030 -6400 0 -6400 0 0
-5030z m8691 4790 c133 -25 237 -109 298 -242 72 -154 163 -583 231 -1089 40
-294 50 -448 39 -579 -15 -171 -54 -279 -159 -435 -43 -65 -60 -118 -35 -109
6 3 19 -3 30 -11 20 -16 20 -16 0 -6 -32 15 -75 2 -76 -23 -2 -21 -2 -21 -6 0
-3 14 -21 29 -54 44 -44 19 -56 21 -92 12 -23 -6 -87 -16 -142 -22 -210 -23
-334 -134 -309 -278 4 -26 9 -55 10 -65 1 -10 3 -19 5 -21 61 -48 121 -75 184
-82 90 -10 149 -8 153 6 2 5 17 10 33 10 16 0 29 4 29 10 0 5 6 7 14 4 8 -3
19 3 26 15 6 12 16 21 23 21 20 0 87 95 87 122 0 5 11 24 24 41 14 18 25 35
25 40 1 4 1 33 1 65 0 56 1 58 28 57 21 0 31 -8 44 -36 10 -20 24 -39 33 -43
8 -3 15 -13 15 -22 0 -9 7 -22 17 -29 18 -13 10 -35 -13 -35 -8 0 -14 -7 -14
-15 0 -8 6 -15 13 -15 9 0 9 -2 1 -8 -7 -4 -14 -18 -15 -32 -2 -14 -8 -24 -14
-23 -22 3 -47 -19 -42 -38 3 -12 -2 -23 -14 -29 -10 -6 -19 -17 -19 -25 0 -8
-9 -15 -19 -15 -11 0 -23 -5 -27 -11 -3 -6 -15 -9 -25 -6 -12 3 -19 0 -19 -9
0 -17 -22 -18 -37 -3 -21 21 -33 -1 -30 -56 2 -30 6 -58 10 -61 4 -4 7 -2 7 4
0 7 5 12 10 12 14 0 12 -27 -2 -34 -7 -3 -3 -3 10 0 19 5 22 1 22 -25 0 -17
-4 -31 -10 -31 -5 0 -10 6 -10 14 0 8 -10 16 -23 20 -29 7 -58 93 -36 107 10
6 6 9 -13 9 -35 0 -41 -12 -29 -55 5 -21 6 -35 0 -35 -21 0 -8 -41 16 -50 14
-5 25 -12 25 -14 0 -14 -27 -63 -40 -73 -8 -6 -12 -14 -8 -18 8 -9 57 26 56
40 0 6 1 21 2 35 2 21 4 19 9 -10 7 -37 4 -63 -8 -56 -3 2 -14 -2 -24 -9 -15
-11 -16 -17 -6 -39 11 -23 10 -28 -7 -40 -10 -8 -15 -18 -11 -22 4 -5 12 -2
16 5 5 7 14 11 20 7 7 -5 9 -1 5 8 -4 11 0 16 10 16 9 0 21 -11 26 -25 9 -22
13 -24 31 -15 11 7 23 9 26 6 4 -3 12 -1 18 4 9 8 11 4 7 -15 -5 -30 8 -32 33
-5 12 14 25 18 41 14 17 -4 24 -2 24 8 0 8 9 25 19 37 l19 22 10 -28 c7 -18
11 -22 11 -10 2 37 30 65 66 65 44 0 54 7 71 49 8 18 18 32 22 29 4 -2 8 14 9
36 2 23 8 47 15 56 7 8 13 22 13 31 0 17 27 17 33 0 5 -12 32 -12 32 0 0 17
58 -13 68 -35 14 -28 52 -39 52 -14 0 10 -5 20 -12 22 -7 3 -8 10 -4 17 12 19
27 -1 31 -42 3 -34 42 -98 75 -124 8 -6 11 -15 7 -19 -4 -5 -12 -2 -17 6 -8
12 -10 11 -10 -6 0 -12 6 -21 15 -21 8 0 15 4 15 9 0 13 27 9 44 -7 8 -8 19
-15 25 -15 6 0 12 -3 12 -7 7 -48 6 -69 -4 -75 -9 -6 -9 -12 1 -28 6 -11 12
-29 12 -39 0 -11 5 -23 11 -26 6 -4 8 -13 5 -20 -3 -8 2 -19 10 -25 17 -15 20
-55 3 -44 -19 12 -28 -18 -12 -42 21 -33 14 -78 -14 -82 -13 -2 -29 -13 -37
-24 -13 -18 -18 -19 -31 -8 -8 7 -18 10 -22 7 -3 -4 -12 -2 -20 4 -10 9 -13 5
-13 -21 0 -29 -2 -32 -24 -26 -20 5 -23 3 -19 -13 5 -19 -18 -43 -24 -25 -5
15 -61 4 -67 -13 -3 -8 -1 -23 4 -33 6 -10 10 -23 10 -29 0 -15 -28 -14 -33 2
-2 6 -3 0 -1 -15 4 -32 -12 -37 -32 -11 -19 27 -29 8 -14 -27 14 -34 8 -49
-13 -32 -16 13 -27 6 -27 -17 0 -9 -19 -24 -45 -36 -44 -19 -63 -44 -50 -65 3
-5 2 -10 -4 -10 -5 0 -13 5 -16 10 -12 19 -45 11 -45 -10 0 -15 -7 -20 -25
-20 -18 0 -28 -7 -35 -26 -8 -21 -15 -25 -35 -20 -20 5 -26 2 -31 -19 -3 -14
-14 -26 -23 -26 -9 -1 -24 -2 -34 -3 -31 -2 -47 -36 -47 -97 0 -32 -5 -61 -10
-64 -6 -4 -10 -12 -8 -18 1 -7 -2 -26 -6 -44 -4 -19 -3 -40 3 -50 10 -17 10
-17 11 2 1 19 1 19 14 3 14 -20 62 -24 68 -7 2 5 16 0 31 -14 24 -20 27 -27
18 -50 -6 -15 -17 -27 -26 -27 -8 0 -15 -9 -15 -20 0 -21 -15 -27 -25 -10 -10
16 -25 12 -25 -6 0 -11 -6 -15 -20 -11 -10 3 -24 -1 -30 -8 -21 -25 -159 -28
-144 -3 4 6 -3 5 -15 -1 -17 -10 -33 -6 -95 22 -228 106 -401 297 -479 528
-63 188 -62 350 6 714 24 132 47 268 51 301 l7 61 -38 7 c-60 9 -85 7 -104
-10 -20 -18 -89 -12 -89 8 0 6 13 8 35 4 22 -4 35 -3 35 4 0 5 -21 10 -46 10
-26 0 -43 4 -39 10 8 14 -30 35 -120 65 -119 41 -248 111 -282 153 -18 22 2
45 28 31 15 -7 19 -6 19 6 0 24 26 18 38 -10 12 -25 73 -75 127 -102 l30 -15
-32 33 c-27 29 -32 41 -30 79 0 25 -6 61 -15 80 -9 19 -32 73 -51 120 -20 47
-60 144 -91 215 -31 72 -56 135 -56 140 0 12 -82 50 -127 60 -18 4 -33 11 -33
16 0 5 -8 9 -18 9 -10 0 -36 9 -58 19 -21 10 -79 31 -129 45 -49 15 -113 33
-141 41 -28 8 -58 15 -66 15 -9 0 -26 9 -39 19 -19 16 -21 22 -12 32 10 10 18
10 38 1 20 -9 25 -9 25 2 0 11 7 11 42 -1 23 -8 53 -12 66 -8 13 3 21 2 18 -3
-3 -5 6 -14 19 -20 21 -10 26 -8 35 8 8 15 6 22 -12 34 -12 9 -27 16 -32 16
-17 0 -45 32 -40 45 3 7 -4 16 -15 20 -25 7 -27 27 -6 45 13 10 15 9 15 -8 0
-12 6 -24 13 -28 6 -4 9 -4 5 1 -4 4 0 13 9 20 18 14 28 55 13 55 -6 0 -10 9
-10 20 0 11 6 20 13 20 8 0 19 11 25 25 15 33 40 32 90 -5 52 -38 78 -38 117
-1 44 43 67 46 103 16 16 -14 33 -25 36 -25 3 0 6 40 6 89 0 97 -19 151 -53
151 -29 0 -20 72 11 85 12 5 22 18 22 28 0 13 5 17 15 13 8 -3 15 -2 15 2 0 4
4 13 8 20 11 17 42 4 42 -17 0 -12 -2 -13 -9 -3 -7 11 -9 11 -14 -1 -6 -15 9
-17 29 -4 17 10 24 59 12 81 -11 19 -11 19 -25 0 -14 -19 -14 -19 -11 1 2 11
-2 19 -8 18 -7 -1 -10 19 -8 58 3 49 1 59 -10 50 -7 -6 -16 -8 -19 -4 -4 3
-10 -2 -13 -11 -5 -14 -9 -15 -15 -4 -10 15 -12 34 -2 25 3 -4 13 -1 21 6 8 6
24 12 35 12 14 0 23 9 28 28 8 28 8 28 -18 12 -13 -9 -28 -14 -31 -10 -4 4 1
11 11 16 9 6 17 16 17 24 0 7 6 15 13 18 9 3 9 7 1 18 -15 19 -26 109 -14 109
6 0 10 8 10 18 0 26 11 34 27 20 19 -15 59 7 77 43 13 27 13 28 -7 26 -13 -1
-23 5 -25 16 -3 12 3 17 21 17 14 0 27 -6 30 -14 10 -25 44 -7 51 26 5 24 10
29 28 26 17 -2 23 -10 23 -28 0 -23 4 -25 45 -25 25 0 50 -4 57 -8 7 -5 16 0
22 12 15 28 13 51 -4 51 -8 0 -15 7 -15 15 0 8 5 15 10 15 6 0 13 -7 16 -15 7
-17 34 -21 34 -5 0 6 10 14 23 19 14 6 47 54 96 142 169 307 259 404 411 445
57 16 112 17 181 4z m-1076 -320 c3 -5 1 -10 -4 -10 -6 0 -11 5 -11 10 0 6 2
10 4 10 3 0 8 -4 11 -10z m285 -280 c0 -5 -4 -10 -10 -10 -5 0 -10 5 -10 10 0
6 5 10 10 10 6 0 10 -4 10 -10z m-330 -56 c0 -8 -7 -14 -15 -14 -15 0 -21 21
-9 33 10 9 24 -2 24 -19z m-84 -95 c10 -17 -13 -36 -27 -22 -12 12 -4 33 11
33 5 0 12 -5 16 -11z m16 -69 c3 -17 -1 -35 -8 -41 -17 -14 -29 7 -15 25 6 7
9 21 5 30 -3 9 -2 16 4 16 5 0 12 -14 14 -30z m11 -277 c-7 -3 -13 -11 -13
-19 0 -8 -6 -11 -15 -8 -10 4 -15 0 -15 -15 0 -12 -4 -21 -10 -21 -5 0 -10 6
-10 14 0 16 61 68 70 59 3 -3 -1 -8 -7 -10z m27 -63 c0 -5 -7 -10 -15 -10 -8
0 -15 5 -15 10 0 6 7 10 15 10 8 0 15 -4 15 -10z m32 -25 c0 -5 -5 -11 -11
-13 -6 -2 -11 4 -11 13 0 9 5 15 11 13 6 -2 11 -8 11 -13z m-432 -115 c0 -5
-4 -10 -10 -10 -5 0 -10 5 -10 10 0 6 5 10 10 10 6 0 10 -4 10 -10z m285 -130
c3 -5 1 -10 -4 -10 -6 0 -11 5 -11 10 0 6 2 10 4 10 3 0 8 -4 11 -10z m283
-1155 c-6 -14 -15 -25 -20 -25 -9 0 -4 14 15 38 15 19 18 14 5 -13z m-88 -49
c-7 -7 -13 -7 -20 0 -6 6 -3 10 10 10 13 0 16 -4 10 -10z m1595 -136 c28 0 59
-47 69 -102 6 -35 5 -38 -16 -36 -13 0 -27 0 -33 -2 -24 -6 -36 3 -56 42 -33
64 -34 116 -2 104 8 -3 25 -6 38 -6z m-1034 -178 c-7 -2 -18 1 -23 6 -8 8 -4
9 13 5 13 -4 18 -8 10 -11z m749 14 c0 -3 -4 -8 -10 -11 -5 -3 -10 -1 -10 4 0
6 5 11 10 11 6 0 10 -2 10 -4z m114 -121 c-6 -16 -34 -21 -34 -7 0 13 11 22
26 22 8 0 11 -6 8 -15z m-1041 -280 c-3 -9 -8 -14 -10 -11 -3 3 -2 9 2 15 9
16 15 13 8 -4z m-923 -309 c0 -16 -18 -31 -27 -22 -8 8 5 36 17 36 5 0 10 -6
10 -14z m2540 -60 c0 -2 -7 -9 -15 -16 -13 -11 -14 -10 -9 4 5 14 24 23 24 12z
m-2593 -22 c-3 -3 -12 -4 -19 -1 -8 3 -5 6 6 6 11 1 17 -2 13 -5z m-3611 -105
c32 -7 63 -16 69 -20 5 -5 15 -9 22 -9 25 0 138 -59 150 -78 14 -23 73 -47 73
-30 0 6 8 4 18 -6 9 -9 41 -32 70 -50 128 -79 246 -234 313 -413 47 -126 69
-247 69 -390 0 -62 4 -103 10 -103 14 0 12 -46 -4 -108 -7 -29 -12 -52 -10
-52 8 0 34 71 44 123 6 31 14 57 17 57 9 0 -11 -158 -24 -190 -3 -8 -8 -24
-10 -35 -18 -103 -112 -247 -196 -300 l-28 -18 12 27 c16 35 8 40 -38 26 -46
-15 -47 -16 -107 -60 -110 -82 -269 -153 -396 -179 -137 -27 -335 -20 -474 15
-44 11 -61 12 -66 4 -5 -9 -15 -8 -38 4 -17 9 -33 20 -37 25 -3 6 -47 45 -98
88 -51 42 -96 82 -102 89 -5 6 -27 23 -47 38 -21 15 -40 36 -43 47 -4 11 -11
16 -17 13 -7 -5 -7 -1 -1 11 12 20 -5 60 -74 173 -25 41 -42 76 -39 79 3 4 6
1 6 -4 0 -6 24 -30 53 -53 28 -23 79 -67 113 -98 33 -32 69 -64 80 -72 37 -29
124 -80 125 -72 1 4 3 48 5 97 3 85 8 137 14 160 1 6 2 14 1 19 -5 23 11 54
29 59 12 3 20 13 20 27 0 11 4 19 9 15 5 -3 12 4 16 15 3 11 13 20 21 20 11 0
13 6 9 20 -4 11 -2 20 4 20 6 0 11 -5 11 -11 0 -8 5 -7 15 1 13 10 13 15 3 21
-14 9 -15 9 35 34 20 11 37 25 37 32 0 7 7 13 16 13 9 0 12 5 8 12 -5 8 -2 9
10 5 13 -5 19 -1 23 13 3 10 14 22 24 25 10 4 19 13 19 20 0 8 8 19 18 24 13
8 14 13 4 19 -8 6 -11 23 -9 47 3 26 0 44 -10 54 -10 10 -13 24 -8 45 4 17 8
71 11 120 2 49 9 95 16 103 7 8 12 33 13 54 0 22 5 39 10 38 13 -1 28 31 32
69 3 28 1 33 -12 29 -11 -5 -15 1 -15 21 0 16 5 33 11 39 18 18 -7 83 -46 120
-19 18 -32 33 -28 33 4 0 -3 7 -16 17 -23 15 -23 17 -6 30 11 7 30 13 44 13
14 1 37 7 50 14 13 7 31 11 40 9 9 -2 27 0 41 6 34 13 66 13 136 0z m3396
-154 c95 -8 226 -48 346 -105 196 -94 335 -229 431 -420 99 -195 120 -367 76
-595 -8 -38 -17 -113 -21 -165 -4 -65 -14 -113 -30 -152 -13 -32 -24 -63 -24
-69 0 -12 -28 -59 -89 -151 -35 -54 -140 -168 -154 -168 -5 0 -27 -16 -50 -35
-77 -66 -270 -125 -408 -125 -208 0 -417 88 -559 235 -56 58 -70 72 -144 134
-126 108 -226 256 -272 404 -19 61 -30 71 -38 35 -2 -13 -3 11 -1 52 2 41 2
67 -1 58 -9 -28 -23 -21 -29 15 -7 37 25 256 55 372 37 145 113 284 219 400
136 148 258 235 376 265 52 14 195 28 230 24 11 -2 50 -5 87 -9z m-1128 -196
c-4 -46 -9 -78 -12 -71 -5 16 8 165 14 159 3 -2 2 -42 -2 -88z m143 9 c-3 -8
-6 -5 -6 6 -1 11 2 17 5 13 3 -3 4 -12 1 -19z m3862 -79 c-11 -32 -94 -121
-119 -127 -6 -1 -28 -13 -48 -26 -65 -41 -142 -77 -152 -71 -16 10 -11 21 13
32 19 9 103 68 147 104 8 7 46 42 83 77 73 70 96 73 76 11z m-6 -140 c-9 -19
-51 -69 -94 -112 -63 -64 -93 -85 -171 -122 -51 -24 -136 -58 -188 -75 -87
-28 -98 -30 -149 -19 -81 16 -179 57 -233 98 -27 19 -48 38 -48 42 0 4 28 -2
63 -13 52 -17 80 -19 177 -14 139 6 297 36 375 71 80 35 83 30 5 -9 -72 -37
-167 -62 -280 -75 l-75 -8 57 -2 c110 -2 267 40 381 104 24 14 76 58 117 99
41 42 75 74 77 72 2 -1 -4 -18 -14 -37z m-1143 -84 c7 -8 8 -15 2 -15 -5 0
-15 7 -22 15 -7 8 -8 15 -2 15 5 0 15 -7 22 -15z m1116 -30 c-36 -85 -146
-178 -264 -223 -150 -58 -273 -62 -386 -12 -64 28 -92 55 -31 29 68 -28 192
-40 280 -27 158 23 331 133 390 248 22 43 30 31 11 -15z m-1131 -35 c10 -11
16 -20 13 -20 -3 0 -13 9 -23 20 -10 11 -16 20 -13 20 3 0 13 -9 23 -20z m365
-360 c0 -5 -5 -10 -11 -10 -5 0 -7 5 -4 10 3 6 8 10 11 10 2 0 4 -4 4 -10z
m-4200 -19 c0 -5 11 -12 24 -15 27 -7 207 -108 202 -113 -2 -2 -29 7 -60 21
-31 14 -60 26 -64 26 -4 1 -31 13 -60 28 -55 28 -87 62 -57 62 8 0 15 -4 15
-9z m-172 -126 c-7 -68 -42 -174 -54 -163 -3 3 2 35 10 71 8 36 18 95 22 131
5 54 9 63 18 50 8 -11 10 -38 4 -89z m152 -1 c0 -8 -4 -12 -10 -9 -5 3 -10 13
-10 21 0 8 5 12 10 9 6 -3 10 -13 10 -21z m-10 -71 c0 -19 33 -75 44 -74 20 3
26 0 21 -9 -3 -5 2 -11 12 -11 17 -1 17 -2 1 -6 -21 -5 -24 -23 -4 -23 8 0 16
-7 20 -15 8 -21 -6 -19 -32 5 -22 21 -67 27 -77 10 -15 -25 -21 4 -12 57 5 32
9 64 10 71 1 19 17 14 17 -5z m108 -10 c20 3 31 3 24 0 -10 -4 -8 -8 5 -18 10
-7 14 -17 10 -22 -5 -4 -14 0 -21 10 -7 9 -25 17 -38 17 -14 0 -32 8 -39 18
-13 15 -12 16 4 3 11 -9 31 -12 55 -8z m416 -48 c15 -8 31 -13 35 -11 3 2 17
-8 31 -21 l25 -25 -25 7 c-28 8 -120 65 -105 65 6 0 23 -7 39 -15z m-330 -17
c-5 -8 -2 -9 9 -5 9 3 18 3 21 -1 2 -4 -6 -9 -20 -10 -15 -1 -24 3 -24 13 0 8
5 15 11 15 5 0 7 -5 3 -12z m496 -48 c0 -5 6 -10 13 -10 7 0 31 -9 53 -19 32
-16 36 -21 21 -26 -11 -5 -25 -1 -35 8 -9 8 -24 17 -32 19 -27 6 -53 38 -30
38 6 0 10 -4 10 -10z m-513 -12 c31 -14 54 -39 47 -50 -3 -4 -10 -5 -17 -3 -7
2 -29 6 -50 8 -21 3 -41 8 -45 13 -4 4 1 4 11 1 9 -4 17 -2 17 3 0 6 -5 10
-11 10 -8 0 -8 5 1 15 15 18 12 18 47 3z m1013 -13 c0 -16 -6 -25 -15 -25 -16
0 -19 9 -9 34 9 25 24 19 24 -9z m-622 -30 c-3 -3 -9 2 -12 12 -6 14 -5 15 5
6 7 -7 10 -15 7 -18z m93 -25 c10 -12 20 -15 26 -9 9 9 163 -76 163 -91 0 -5
3 -15 6 -24 8 -21 -33 -22 -55 -2 -20 17 -132 56 -163 56 -28 0 -84 43 -75 57
4 6 17 9 28 6 18 -5 20 -3 14 17 -6 19 -4 21 17 15 12 -4 30 -15 39 -25z
m-591 6 c0 -3 -4 -8 -10 -11 -5 -3 -10 -1 -10 4 0 6 5 11 10 11 6 0 10 -2 10
-4z m1220 -98 c-10 -29 -25 -69 -34 -88 l-15 -35 -1 36 c0 35 45 139 60 139 5
0 1 -24 -10 -52z m-109 -75 c1 -29 -1 -56 -4 -60 -4 -3 -7 0 -8 8 0 8 -3 6 -8
-5 -9 -23 -13 120 -4 149 5 18 7 16 14 -9 5 -16 9 -53 10 -83z m-597 61 c9 -3
13 -11 9 -17 -3 -6 -1 -7 5 -3 6 4 26 -1 43 -10 25 -12 29 -18 18 -25 -12 -7
-12 -9 0 -9 8 0 12 -3 8 -6 -3 -3 -19 3 -35 15 -17 12 -35 21 -42 21 -6 0 -21
5 -32 11 -17 9 -18 13 -7 20 17 11 14 10 33 3z m-59 -34 c-3 -5 -11 -10 -16
-10 -6 0 -7 5 -4 10 3 6 11 10 16 10 6 0 7 -4 4 -10z m582 -32 c-3 -8 -6 -5
-6 6 -1 11 2 17 5 13 3 -3 4 -12 1 -19z m90 -10 c-3 -7 -5 -2 -5 12 0 14 2 19
5 13 2 -7 2 -19 0 -25z m-115 -90 c3 -40 6 -47 26 -51 17 -3 22 -1 18 10 -4 8
-9 33 -12 56 -6 40 -5 41 10 21 8 -12 18 -40 22 -62 5 -32 11 -42 31 -47 14
-3 23 -8 21 -11 -3 -2 -38 6 -79 20 -41 13 -67 24 -58 25 14 1 16 7 8 39 -11
50 -11 68 0 57 6 -6 11 -31 13 -57z m115 30 c-3 -8 -6 -5 -6 6 -1 11 2 17 5
13 3 -3 4 -12 1 -19z m-30 -60 c-3 -8 -6 -5 -6 6 -1 11 2 17 5 13 3 -3 4 -12
1 -19z m36 -72 c106 -29 142 -48 77 -41 l-45 5 43 -19 c44 -21 63 -48 43 -61
-17 -10 -99 6 -127 25 -13 8 -30 15 -37 15 -18 0 -137 80 -137 92 0 6 15 7 36
3 26 -4 34 -3 29 5 -5 9 -1 10 14 5 11 -3 58 -17 104 -29z m-102 -172 c175
-50 220 -67 217 -83 -5 -25 -80 -18 -139 13 -28 14 -56 26 -62 26 -7 0 -34 14
-62 30 -57 34 -41 39 46 14z m5569 -110 c651 -148 941 -260 966 -372 3 -15 12
-40 19 -56 7 -16 11 -35 8 -43 -3 -7 -1 -13 4 -13 12 0 17 -178 9 -322 -5 -73
-8 -82 -55 -153 -41 -62 -64 -85 -126 -126 -109 -72 -199 -119 -375 -195 -363
-157 -510 -204 -631 -204 -32 0 -68 -6 -79 -12 -16 -10 -22 -10 -32 4 -8 9
-36 18 -70 22 -76 8 -203 49 -308 98 -113 53 -223 97 -285 112 l-50 13 -12
144 c-7 79 -17 182 -22 229 -6 47 -17 150 -25 230 -8 80 -18 164 -22 188 -6
41 -6 42 22 42 47 1 183 51 268 100 96 55 194 147 229 216 30 59 39 67 91 84
142 46 314 51 476 14z m-5337 -55 c20 -5 37 -15 37 -20 0 -11 -14 -8 -80 17
-43 16 -12 19 43 3z m4332 -228 c-6 -5 -28 -14 -49 -20 -22 -6 -35 -6 -30 -1
5 4 25 13 44 18 46 13 45 13 35 3z m2295 -282 c0 -11 -4 -18 -10 -14 -5 3 -7
12 -3 20 7 21 13 19 13 -6z m-7333 -14 c-7 -7 -16 -11 -22 -10 -5 2 -23 7 -40
11 -30 7 -30 7 -5 13 14 4 37 5 52 3 21 -3 24 -7 15 -17z m629 -82 c-11 -11
-19 6 -11 24 8 17 8 17 12 0 3 -10 2 -21 -1 -24z m-1162 -14 c73 -13 126 -34
126 -49 0 -6 4 -9 9 -6 5 3 14 -1 21 -9 7 -8 20 -15 30 -15 9 0 32 -8 51 -17
18 -9 48 -16 65 -15 35 3 84 -30 84 -56 0 -12 -3 -13 -12 -4 -7 7 -16 12 -21
12 -5 0 -2 -7 7 -15 8 -8 18 -15 23 -15 11 0 65 -47 61 -53 -5 -8 40 -57 52
-57 5 0 10 -7 10 -15 0 -8 4 -15 10 -15 5 0 18 -17 29 -39 11 -21 31 -51 44
-67 13 -16 27 -42 31 -59 4 -16 12 -32 17 -36 19 -11 70 -181 82 -276 20 -153
14 -234 -27 -353 -15 -41 -24 -81 -21 -90 6 -19 -61 -136 -118 -205 -22 -27
-68 -74 -101 -103 -64 -57 -203 -148 -212 -139 -3 3 12 15 33 26 42 21 81 57
49 45 -9 -4 -16 -1 -16 6 0 10 -3 10 -15 0 -9 -7 -18 -10 -22 -7 -3 4 -11 3
-17 -2 -6 -4 -20 -11 -31 -14 -14 -5 -11 0 10 18 17 14 38 28 48 31 9 3 17 11
17 19 0 23 -12 45 -21 39 -5 -3 -9 2 -9 12 0 14 3 14 15 4 9 -7 16 -11 18 -9
1 2 10 18 19 35 l17 30 -30 -4 c-32 -5 -38 8 -13 32 26 27 36 27 -271 -23
-132 -21 -269 -42 -305 -46 -64 -6 -64 -6 -46 14 10 11 23 18 29 16 7 -3 23
10 37 29 13 18 66 59 117 92 52 32 147 93 212 135 65 42 128 82 140 89 13 7
20 17 17 26 -3 8 1 14 9 14 22 0 18 37 -4 43 -12 3 -24 20 -31 44 -9 30 -17
39 -36 41 -24 2 -36 -4 -152 -72 -35 -21 -69 -35 -76 -33 -8 3 -19 0 -26 -6
-10 -10 -11 -7 -6 13 4 14 8 30 10 37 3 15 50 53 65 53 6 0 11 4 11 9 0 4 19
21 42 36 24 16 66 51 95 78 l52 49 -29 32 c-26 27 -29 37 -25 73 4 33 0 49
-22 83 -15 22 -32 39 -39 36 -6 -2 -17 7 -23 20 -6 14 -17 24 -23 23 -7 -1
-20 0 -28 3 -8 4 -24 9 -34 12 -18 6 -18 7 2 26 24 23 19 50 -9 50 -24 0 -50
39 -43 66 5 19 1 23 -28 29 -39 9 -60 23 -52 37 4 6 -2 8 -15 3 -15 -4 -27 1
-45 19 -13 14 -31 26 -40 26 -9 0 -16 5 -16 10 0 20 -20 10 -34 -17 -19 -34
-102 -123 -115 -123 -6 0 -15 9 -22 21 -8 17 -17 20 -40 15 -21 -4 -39 1 -66
20 -49 33 -55 51 -32 92 10 18 19 42 19 53 0 25 -26 25 -33 -1 -6 -23 -37 -27
-37 -5 0 8 -9 15 -20 15 -11 0 -20 7 -20 15 0 8 8 14 18 13 9 -1 26 0 37 1 15
1 17 3 7 10 -11 6 -7 13 15 29 53 38 141 82 163 82 12 0 31 5 43 12 64 34 270
43 411 17z m574 -13 c40 -25 162 -143 162 -157 0 -4 12 -21 26 -38 14 -17 22
-31 17 -31 -4 1 -26 23 -48 51 -22 28 -77 82 -122 121 -46 40 -83 73 -83 75 0
7 12 2 48 -21z m-2982 -136 c101 -20 216 -69 306 -131 104 -71 320 -245 378
-303 l55 -57 3 -172 c4 -191 -6 -314 -44 -552 -31 -199 -34 -206 -76 -204 -31
2 -67 -11 -92 -33 -6 -5 -74 -50 -151 -99 -259 -167 -365 -203 -590 -203 -104
1 -166 6 -241 22 -207 44 -614 200 -927 354 -513 253 -648 373 -664 588 -7 96
22 167 101 246 34 34 79 71 101 83 22 12 67 38 100 57 182 108 607 255 1035
357 329 79 491 90 706 47z m2961 -68 c59 -50 133 -167 157 -251 19 -65 19 -58
2 -64 -10 -4 -14 0 -13 13 3 38 -92 204 -158 275 -92 100 -87 111 12 27z
m-1267 38 c0 -5 -5 -10 -11 -10 -5 0 -7 5 -4 10 3 6 8 10 11 10 2 0 4 -4 4
-10z m1594 -262 c17 -53 15 -63 -14 -80 -29 -16 -30 -16 -30 2 0 10 -4 22 -10
25 -15 9 -12 31 6 49 19 19 43 21 48 4z m1826 -244 c36 -8 84 -19 107 -24 62
-13 123 -45 173 -90 25 -22 50 -40 56 -40 14 0 98 -90 146 -155 54 -75 101
-188 112 -271 2 -16 20 -64 40 -108 75 -162 104 -325 86 -496 -24 -240 -118
-459 -301 -695 -90 -118 -300 -324 -401 -395 -160 -112 -346 -122 -496 -27
-77 48 -212 185 -307 312 -95 127 -126 177 -205 335 -74 148 -107 246 -131
388 -17 99 -19 129 -9 226 17 192 70 344 170 495 32 48 63 104 70 126 18 57
19 58 32 80 7 11 26 40 42 65 28 45 123 140 139 140 4 0 25 14 46 30 59 48
284 131 310 115 5 -3 20 0 33 5 30 13 205 4 288 -16z m-1893 -6 c-3 -8 -6 -5
-6 6 -1 11 2 17 5 13 3 -3 4 -12 1 -19z m-1981 -240 c-4 -23 -25 -94 -47 -158
-43 -125 -73 -237 -84 -314 -8 -61 -15 -77 -27 -70 -12 8 -2 118 19 199 20 80
131 385 140 385 3 0 3 -19 -1 -42z m2530 -162 c-48 -59 -142 -156 -151 -156
-4 0 6 15 21 33 15 17 57 67 93 110 36 43 67 74 69 67 2 -6 -12 -30 -32 -54z
m314 43 c0 -6 -4 -7 -10 -4 -5 3 -10 11 -10 16 0 6 5 7 10 4 6 -3 10 -11 10
-16z m-389 -26 c-37 -46 -110 -125 -95 -104 18 27 116 141 121 141 2 0 -9 -17
-26 -37z m172 -35 c-70 -93 -127 -158 -256 -293 -83 -88 -172 -178 -197 -200
-25 -22 11 19 80 91 69 71 181 193 250 272 69 78 127 142 129 142 2 0 -1 -6
-6 -12z m157 -18 c0 -5 -4 -10 -10 -10 -5 0 -10 5 -10 10 0 6 5 10 10 10 6 0
10 -4 10 -10z m35 -49 c-29 -56 -211 -274 -296 -355 -46 -44 -109 -103 -139
-131 -52 -49 -98 -81 -105 -73 -2 2 33 42 77 91 44 48 75 87 69 87 -6 0 -11 7
-11 16 0 11 6 15 20 11 28 -7 80 54 80 93 0 20 5 30 15 30 8 0 15 -5 15 -12 0
-6 14 8 30 30 17 23 35 42 41 42 5 0 7 5 4 10 -4 6 -4 18 0 28 5 13 8 13 14 4
6 -9 34 15 96 83 54 59 92 92 97 87 6 -6 3 -22 -7 -41z m3705 -43 c0 -5 -9 -4
-20 2 -11 6 -20 12 -20 14 0 2 9 2 20 -1 11 -3 20 -9 20 -15z m-3810 2 c0 -5
-4 -10 -10 -10 -5 0 -10 5 -10 10 0 6 5 10 10 10 6 0 10 -4 10 -10z m3981 -77
c38 -28 49 -43 28 -43 -9 0 -62 35 -93 62 -26 21 31 5 65 -19z m-746 -333 c-3
-5 -11 -10 -16 -10 -6 0 -7 5 -4 10 3 6 11 10 16 10 6 0 7 -4 4 -10z m-3635
-30 c0 -5 -4 -10 -10 -10 -5 0 -10 5 -10 10 0 6 5 10 10 10 6 0 10 -4 10 -10z
m3635 -20 c-3 -5 -10 -10 -16 -10 -5 0 -9 5 -9 10 0 6 7 10 16 10 8 0 12 -4 9
-10z m-4560 -30 c-3 -5 -12 -10 -18 -10 -7 0 -6 4 3 10 19 12 23 12 15 0z
m4637 -43 c12 -16 14 -25 6 -34 -8 -10 -6 -13 6 -13 9 0 29 -21 44 -46 15 -26
41 -62 58 -81 25 -26 147 -257 205 -388 21 -47 28 -89 18 -101 -15 -19 -64 7
-83 44 -8 15 -31 44 -50 65 -19 20 -33 37 -30 37 3 0 -5 13 -18 29 -21 26 -59
83 -130 197 -15 25 -22 44 -16 44 7 0 5 6 -4 13 -26 20 -78 116 -72 132 4 8 1
22 -6 30 -6 8 -9 19 -6 24 4 5 -1 14 -10 19 -16 9 -15 11 4 23 12 8 22 20 22
27 0 19 41 5 62 -21z m446 -43 c53 -37 61 -118 14 -154 -33 -27 -62 -25 -95 5
-50 47 -35 130 28 156 28 11 28 11 53 -7z m-1121 -149 c8 -9 16 -21 17 -28 1
-6 6 -18 10 -26 7 -11 4 -13 -12 -9 -12 4 -22 2 -22 -3 0 -5 -4 -9 -10 -9 -5
0 -10 20 -10 45 0 49 4 53 27 30z m376 -12 c-6 -16 -5 -16 17 0 29 20 76 22
87 5 17 -26 76 -73 70 -56 -4 12 -2 15 9 11 9 -3 13 -12 9 -21 -4 -11 24 -44
88 -106 87 -85 148 -160 225 -280 18 -27 32 -54 32 -60 0 -5 9 -29 21 -53 24
-51 20 -100 -11 -128 -20 -18 -22 -17 -73 18 -28 20 -77 62 -107 92 -30 31
-68 68 -84 83 -35 34 -146 167 -171 207 -11 17 -22 32 -26 35 -3 3 -19 28 -34
55 -16 28 -46 66 -67 86 -21 20 -38 41 -38 48 0 14 43 81 52 81 4 0 4 -8 1
-17z m797 -273 c41 -41 16 -117 -47 -141 -43 -16 -93 24 -93 74 0 70 93 114
140 67z"/>
<path d="M7660 10420 c0 -5 5 -10 11 -10 5 0 7 5 4 10 -3 6 -8 10 -11 10 -2 0
-4 -4 -4 -10z"/>
<path d="M7638 10393 c7 -3 16 -2 19 1 4 3 -2 6 -13 5 -11 0 -14 -3 -6 -6z"/>
<path d="M7655 10310 c-4 -13 -14 -20 -24 -18 -17 3 -21 -1 -21 -21 0 -16 49
-19 70 -4 24 17 26 48 4 57 -22 8 -22 8 -29 -14z"/>
<path d="M8842 8281 c2 -7 7 -12 11 -12 12 1 9 15 -3 20 -7 2 -11 -2 -8 -8z"/>
<path d="M8290 8149 c0 -5 5 -7 10 -4 6 3 10 8 10 11 0 2 -4 4 -10 4 -5 0 -10
-5 -10 -11z"/>
<path d="M8300 8111 c0 -6 4 -13 10 -16 6 -3 7 1 4 9 -7 18 -14 21 -14 7z"/>
<path d="M8274 8061 c0 -31 3 -38 13 -29 9 7 17 7 28 -2 13 -11 13 -14 -2 -27
-16 -13 -16 -13 5 -3 26 13 28 26 6 38 -8 5 -23 21 -33 35 l-18 27 1 -39z"/>
<path d="M9246 7872 c-3 -6 -1 -14 5 -17 15 -10 25 3 12 16 -7 7 -13 7 -17 1z"/>
<path d="M8897 6860 c3 -11 11 -20 18 -20 7 0 15 9 18 20 4 16 0 20 -18 20
-18 0 -22 -4 -18 -20z"/>
<path d="M8880 6831 c0 -12 5 -21 10 -21 6 0 10 6 10 14 0 8 -4 18 -10 21 -5
3 -10 -3 -10 -14z"/>
<path d="M8686 6681 c6 -7 18 -13 25 -15 8 -1 24 -7 36 -14 26 -14 33 -15 33
-3 0 7 -39 22 -60 23 -3 0 -14 5 -25 10 -15 8 -17 8 -9 -1z"/>
<path d="M3208 7203 c7 -3 16 -2 19 1 4 3 -2 6 -13 5 -11 0 -14 -3 -6 -6z"/>
<path d="M3200 6400 c0 -5 7 -10 16 -10 8 0 12 5 9 10 -3 6 -10 10 -16 10 -5
0 -9 -4 -9 -10z"/>
<path d="M7265 5511 c-6 -5 -42 -25 -80 -44 -88 -45 -227 -85 -330 -96 l-80
-8 76 -2 c109 -2 182 15 284 64 77 37 162 93 145 95 -4 0 -10 -4 -15 -9z"/>
<path d="M4850 5906 c0 -2 7 -7 16 -10 8 -3 12 -2 9 4 -6 10 -25 14 -25 6z"/>
<path d="M5410 5786 c0 -2 7 -7 16 -10 8 -3 12 -2 9 4 -6 10 -25 14 -25 6z"/>
<path d="M5156 2975 c-11 -8 -15 -15 -9 -15 6 0 16 7 23 15 16 19 11 19 -14 0z"/>
<path d="M2938 3029 c-18 -10 -25 -39 -10 -39 17 1 34 19 30 33 -2 12 -7 13
-20 6z"/>
<path d="M7170 3734 c-41 -6 -204 -54 -198 -59 1 -2 39 5 83 16 55 13 117 20
200 20 133 1 226 -15 324 -55 36 -14 66 -24 68 -22 10 10 -123 66 -192 80 -85
18 -227 27 -285 20z"/>
<path d="M9585 2710 c-3 -5 -1 -10 4 -10 6 0 11 5 11 10 0 6 -2 10 -4 10 -3 0
-8 -4 -11 -10z"/>
</g>
</svg>
